<?xml version="1.0" standalone="no"?>
<!DOCTYPE svg PUBLIC "-//W3C//DTD SVG 20010904//EN"
 "http://www.w3.org/TR/2001/REC-SVG-20010904/DTD/svg10.dtd">
<svg version="1.0" xmlns="http://www.w3.org/2000/svg"
 width="500.000000pt" height="315.000000pt" viewBox="0 0 500.000000 315.000000"
 preserveAspectRatio="xMidYMid meet">

<g transform="translate(0.000000,315.000000) scale(0.100000,-0.100000)"
fill="#000000" stroke="none">
<path d="M1267 2936 c-12 -18 -22 -20 -63 -17 -98 8 -210 4 -247 -8 -51 -17
-94 -56 -102 -91 -7 -34 -21 -39 -29 -12 -20 63 -117 91 -181 53 l-36 -21 -61
25 c-34 14 -63 25 -65 25 -2 0 4 -16 12 -36 20 -48 19 -51 -13 -59 -69 -17
-95 -95 -52 -155 l19 -27 -23 -11 c-33 -15 -66 -88 -66 -145 0 -62 21 -112 66
-153 l35 -34 -28 -24 c-38 -33 -38 -95 1 -135 l26 -28 -20 -18 c-50 -45 -79
-158 -61 -232 15 -61 52 -123 91 -156 29 -25 29 -26 15 -61 -22 -51 -18 -95
11 -154 30 -60 71 -95 138 -118 40 -14 46 -19 41 -38 -19 -63 -20 -59 15 -41
l32 17 30 -36 c42 -51 95 -76 163 -76 54 0 56 -1 61 -30 9 -45 49 -78 149
-125 83 -39 155 -94 155 -119 0 -6 11 6 25 26 20 29 50 49 140 93 109 54 115
58 137 105 l23 49 53 1 c64 0 119 26 160 76 l30 36 32 -17 33 -17 -7 25 c-3
14 -8 32 -12 40 -4 11 6 18 33 27 126 40 202 170 159 273 l-15 38 35 31 c40
36 68 85 85 152 17 67 -3 154 -49 214 -30 39 -32 46 -18 54 9 5 23 23 32 39
20 39 11 82 -23 109 l-25 19 36 34 c85 80 89 217 10 290 -26 25 -27 26 -11 51
37 56 8 138 -53 151 -33 7 -36 18 -15 55 19 34 18 44 -2 35 -100 -41 -115 -44
-147 -24 -63 38 -151 15 -182 -49 -18 -35 -19 -36 -22 -12 -6 40 -39 77 -90
101 -37 18 -64 23 -132 24 -47 0 -104 -4 -127 -8 -38 -8 -45 -6 -67 16 l-25
25 -14 -22z m-53 -125 c10 -9 31 -35 46 -58 l26 -41 18 33 c31 57 70 87 114
89 44 1 69 -15 84 -53 11 -30 -4 -64 -36 -79 -20 -10 -20 -10 9 -23 17 -7 78
-15 137 -17 119 -4 256 18 392 64 42 14 80 23 85 20 5 -3 11 -18 14 -33 3 -16
9 -36 12 -46 6 -13 0 -20 -25 -28 l-32 -12 31 -20 c58 -36 78 -115 46 -177
-21 -42 -53 -60 -103 -60 -36 0 -49 5 -73 31 l-29 31 0 -38 c0 -42 34 -117 98
-219 87 -137 110 -263 64 -351 -31 -60 -64 -79 -140 -78 -62 0 -62 0 -44 -20
63 -71 77 -154 40 -226 -27 -52 -89 -90 -149 -90 l-37 0 10 -34 c9 -28 8 -40
-8 -68 -35 -61 -112 -82 -234 -65 -42 6 -60 5 -74 -6 -18 -13 -17 -14 12 -9
24 3 34 -1 46 -21 35 -53 -24 -117 -106 -117 -45 0 -54 4 -87 38 l-36 37 -36
-37 c-33 -34 -42 -38 -87 -38 -66 0 -112 35 -112 85 0 40 21 59 57 52 26 -5
26 -4 8 9 -22 17 -36 17 -104 4 -68 -13 -143 3 -184 40 -27 24 -30 33 -29 79
1 51 1 51 -31 51 -51 1 -111 34 -136 74 -44 71 -37 155 19 227 l28 35 -61 0
c-74 -1 -109 19 -137 75 -54 104 -22 240 95 411 48 69 65 111 65 160 l0 40
-29 -31 c-24 -26 -36 -31 -75 -31 -36 0 -52 6 -77 28 -59 52 -47 169 21 211
l31 19 -32 11 c-26 9 -30 14 -24 33 4 13 9 35 12 51 6 31 17 33 70 12 51 -20
173 -50 258 -65 81 -14 257 -9 299 8 l28 12 -26 21 c-44 35 -31 101 24 122 22
8 72 -3 94 -22z"/>
<path d="M1098 2786 c-14 -32 -4 -56 22 -56 18 0 19 3 8 20 -17 27 4 50 30 34
45 -28 16 -94 -55 -126 -103 -46 -336 -28 -537 42 -61 21 -70 19 -80 -15 -4
-15 2 -23 26 -35 35 -16 49 -40 24 -40 -25 0 -83 -58 -89 -89 -3 -16 -1 -45 4
-65 20 -72 113 -87 149 -24 14 26 13 29 -6 49 -15 15 -28 19 -43 14 -27 -8
-28 -35 -1 -35 11 0 20 -4 20 -9 0 -16 -20 -23 -46 -17 -53 14 -17 96 42 96
38 0 81 -45 93 -98 15 -63 -2 -120 -68 -220 -76 -117 -104 -184 -108 -266 -5
-80 12 -125 58 -159 32 -23 100 -25 134 -3 32 21 41 70 20 102 -13 20 -23 25
-48 22 -27 -2 -33 -8 -35 -30 -3 -25 3 -31 26 -26 4 0 6 9 4 20 -4 22 11 24
27 4 9 -11 9 -20 2 -34 -27 -50 -91 -26 -91 33 0 40 28 65 73 65 41 0 67 -17
82 -54 19 -45 4 -96 -45 -161 -54 -71 -60 -87 -60 -149 0 -47 4 -60 30 -89 32
-37 85 -57 149 -57 43 0 51 -9 26 -30 -25 -21 -19 -77 11 -105 31 -29 35 -30
173 -30 100 0 104 -1 123 -26 31 -41 6 -89 -37 -73 -11 4 -13 13 -9 28 6 20 5
20 -12 4 -15 -14 -16 -21 -6 -43 35 -76 171 -43 188 45 7 31 34 43 34 15 0
-83 130 -136 185 -76 19 22 17 52 -4 59 -8 3 -11 0 -8 -6 10 -14 -18 -33 -37
-26 -16 6 -20 21 -16 59 4 38 29 46 123 40 107 -7 149 0 182 31 29 27 34 84
10 104 -25 21 -17 30 26 30 124 0 189 63 180 175 -3 37 -12 52 -67 128 -38 51
-44 66 -44 109 0 64 30 98 88 98 47 0 72 -24 72 -68 0 -57 -65 -78 -91 -30 -8
16 -7 24 4 35 19 19 43 8 27 -12 -8 -10 -8 -15 0 -20 17 -11 32 9 28 36 -7 54
-98 26 -98 -30 0 -89 131 -116 194 -40 33 39 39 65 34 142 -4 71 -41 159 -108
257 -56 82 -70 119 -70 183 0 95 67 161 128 126 19 -10 28 -24 30 -46 3 -27
-1 -33 -22 -39 -26 -6 -46 1 -46 17 0 5 9 9 21 9 14 0 19 5 17 18 -5 24 -41
26 -62 3 -37 -41 15 -99 79 -87 44 9 70 46 70 102 0 47 -26 84 -79 111 l-30
16 23 18 c13 11 29 19 37 19 17 0 17 1 4 35 -8 20 -15 25 -28 20 -128 -49
-354 -90 -463 -82 -123 8 -206 58 -197 118 4 30 33 48 50 31 10 -10 10 -17 0
-33 -12 -19 -11 -20 10 -17 15 2 24 11 26 26 5 33 -15 52 -55 52 -48 0 -92
-47 -123 -133 -13 -35 -23 -29 -40 24 -31 92 -133 146 -162 85z m200 -220 c0
-14 10 -46 23 -72 20 -42 22 -61 20 -141 l-3 -93 27 0 c25 0 26 2 24 48 -1 26
5 64 14 86 10 21 17 45 17 52 0 8 5 14 11 14 6 0 9 -6 6 -12 -2 -7 2 -29 9
-50 7 -20 9 -40 6 -44 -4 -5 1 -2 11 5 12 9 17 10 17 2 0 -27 23 -37 57 -26
30 9 33 13 27 38 -5 26 -4 28 18 25 20 -3 23 -8 20 -38 -2 -21 -13 -45 -29
-62 -21 -22 -23 -28 -10 -28 9 0 17 7 17 15 0 14 3 14 23 1 12 -8 43 -18 69
-21 26 -4 49 -13 52 -21 3 -8 12 -14 21 -14 8 0 15 -4 15 -8 0 -13 -58 -1 -71
14 -17 21 -29 17 -29 -8 -1 -31 -23 -58 -46 -57 -17 0 -16 2 4 11 22 11 28 33
14 54 -10 14 -95 11 -100 -4 -8 -25 -19 -10 -20 29 -2 46 -6 55 -30 68 -15 8
-17 2 -18 -55 -1 -53 1 -61 11 -48 11 16 12 16 18 0 4 -10 -1 -23 -13 -33 -14
-12 -20 -30 -20 -60 0 -24 3 -43 8 -43 4 0 12 -10 17 -22 8 -18 17 -22 40 -20
40 5 59 20 44 38 -13 16 -4 34 17 34 27 0 22 -65 -8 -97 -12 -13 -18 -26 -14
-30 4 -4 11 -1 16 7 6 10 12 11 22 3 7 -6 36 -14 65 -18 30 -4 54 -13 57 -21
3 -8 12 -14 20 -14 7 0 16 -6 19 -14 4 -11 0 -12 -26 -4 -18 6 -40 15 -49 19
-25 13 -28 11 -28 -9 0 -24 -38 -64 -52 -56 -7 5 -3 10 10 15 22 8 27 24 17
51 -7 19 -90 15 -110 -6 -9 -9 -17 -16 -18 -16 -2 0 -1 18 1 40 3 26 8 38 16
33 6 -3 0 6 -13 20 -38 42 -51 35 -51 -27 0 -40 4 -55 16 -60 8 -3 12 -10 9
-16 -3 -5 -1 -10 6 -10 7 0 5 -6 -6 -14 -25 -18 -13 -46 20 -46 30 0 43 24 24
46 -12 15 -10 16 21 9 19 -4 42 -13 50 -21 12 -12 11 -14 -8 -14 -26 0 -46
-32 -30 -48 29 -29 72 -3 61 36 -9 34 15 27 57 -17 50 -53 68 -121 50 -200
-33 -152 -150 -247 -346 -279 -202 -33 -397 29 -489 156 -85 118 -75 283 22
348 28 19 31 24 18 34 -8 7 -15 21 -15 31 0 22 -17 34 -33 21 -18 -13 -79 -24
-72 -12 3 6 12 10 20 10 7 0 15 6 18 14 3 8 27 17 54 21 26 3 56 12 66 20 17
12 17 15 2 44 -12 24 -13 36 -5 52 15 27 36 18 32 -14 -2 -22 2 -28 30 -35 24
-6 33 -14 34 -29 1 -15 -3 -20 -15 -16 -14 4 -14 3 -1 -9 20 -18 24 -69 4 -61
-8 3 -14 11 -14 17 0 8 -17 12 -47 12 -36 -1 -50 -5 -55 -19 -10 -22 0 -47 19
-47 8 0 12 -4 8 -10 -3 -5 7 -3 22 5 15 8 48 15 73 15 32 0 41 3 30 10 -12 8
-12 10 3 16 13 5 17 18 17 59 0 34 -5 55 -12 58 -10 3 -10 9 0 26 15 25 16
111 2 111 -6 0 -23 12 -38 28 -22 22 -36 27 -75 27 -37 0 -49 -4 -53 -18 -6
-20 13 -50 27 -41 5 3 9 0 9 -5 0 -6 -7 -11 -15 -11 -14 0 -24 16 -39 64 -6
17 -8 17 -24 4 -9 -9 -31 -18 -49 -20 l-32 -4 24 22 c13 12 41 24 62 28 21 4
50 12 66 18 20 8 31 7 42 -2 13 -11 14 -10 9 4 -3 9 -10 16 -16 16 -13 0 -36
60 -31 81 3 11 14 19 25 19 17 0 19 -5 14 -25 -6 -22 -2 -27 34 -41 l40 -16
-22 -21 c-17 -15 -18 -19 -5 -14 14 5 16 2 11 -18 -7 -29 4 -54 16 -35 4 7 13
9 19 6 6 -4 8 -12 5 -18 -4 -6 -3 -9 2 -6 15 10 4 116 -12 120 -11 2 -8 12 12
40 15 20 27 49 27 63 0 15 4 24 11 22 6 -3 10 -10 8 -16 -1 -6 5 -26 15 -44 9
-18 17 -54 17 -82 1 -44 4 -50 24 -53 23 -4 23 -3 21 103 -2 71 1 109 9 114
14 8 43 87 35 94 -8 8 7 28 16 22 5 -2 9 -16 9 -29z m-433 -119 c-10 -8 -15
-19 -11 -25 4 -7 2 -12 -3 -12 -6 0 -11 6 -11 13 0 15 20 37 34 37 5 0 2 -6
-9 -13z m859 -3 c9 -8 13 -21 9 -27 -4 -6 -9 -2 -14 11 -11 28 -23 28 -50 0
-21 -23 -21 -23 -10 -1 10 19 24 30 43 32 4 1 14 -6 22 -15z m-806 -34 c-2 -7
-10 1 -17 16 -12 27 -11 28 4 12 10 -9 16 -21 13 -28z m-78 -68 c-12 -10 -23
-29 -23 -44 -2 -28 -17 -28 -17 -1 0 18 38 63 53 63 5 0 -1 -8 -13 -18z m908
-2 c13 -12 22 -32 21 -48 -1 -26 -1 -26 -10 6 -6 20 -14 30 -21 26 -6 -4 -8
-3 -4 4 3 6 -2 15 -11 21 -10 6 -13 11 -7 11 5 0 20 -9 32 -20z m36 -155 c3
-9 0 -15 -9 -15 -9 0 -12 6 -9 15 4 8 7 15 9 15 2 0 5 -7 9 -15z m-979 -5 c3
-5 1 -10 -4 -10 -6 0 -11 5 -11 10 0 6 2 10 4 10 3 0 8 -4 11 -10z m48 -30
c-3 -12 -8 -19 -11 -16 -5 6 5 36 12 36 2 0 2 -9 -1 -20z m67 -21 c0 -10 -4
-21 -10 -24 -5 -3 -7 0 -4 9 3 8 0 25 -7 38 -11 21 -11 22 4 9 10 -7 17 -22
17 -32z m809 27 c7 -8 8 -17 3 -20 -6 -3 -12 3 -15 14 -6 24 -4 25 12 6z m-68
-19 c-10 -9 -11 -8 -5 6 3 10 9 15 12 12 3 -3 0 -11 -7 -18z m-825 -76 c-4 -5
-1 -12 4 -14 6 -3 5 -4 -2 -3 -7 2 -18 -11 -25 -28 -10 -28 -12 -29 -12 -7 -1
14 6 33 16 43 17 19 28 24 19 9z m918 -7 c9 -8 16 -27 15 -42 -1 -26 -1 -25
-10 6 -5 18 -13 31 -18 28 -4 -3 -8 1 -8 9 0 19 2 19 21 -1z m-944 -165 c0 -6
-4 -7 -10 -4 -5 3 -10 11 -10 16 0 6 5 7 10 4 6 -3 10 -11 10 -16z m969 0
c-16 -10 -23 -4 -14 10 3 6 11 8 17 5 6 -4 5 -9 -3 -15z"/>
<path d="M1001 2004 c0 -11 3 -14 6 -6 3 7 2 16 -1 19 -3 4 -6 -2 -5 -13z"/>
<path d="M1268 1903 c12 -2 32 -2 45 0 12 2 2 4 -23 4 -25 0 -35 -2 -22 -4z"/>
<path d="M1017 1893 c-24 -23 22 -64 48 -43 11 9 12 17 4 31 -10 19 -39 26
-52 12z"/>
<path d="M1112 1868 c-21 -21 -13 -45 18 -58 36 -15 60 -1 60 35 0 31 -54 47
-78 23z"/>
<path d="M1226 1849 c-14 -17 -26 -40 -25 -52 1 -20 2 -20 9 3 l8 25 1 -25 c1
-20 3 -22 11 -10 9 13 10 13 10 0 0 -8 -5 -22 -10 -30 -8 -12 -10 -12 -10 -1
0 8 -2 12 -5 9 -3 -3 -2 -13 1 -22 5 -14 9 -15 15 -4 7 10 9 9 9 -4 0 -9 -11
-30 -25 -46 -29 -35 -31 -41 -10 -38 28 4 48 45 42 84 -6 34 -5 35 8 18 20
-27 19 -52 -5 -101 -16 -32 -18 -48 -11 -66 9 -22 10 -21 10 11 1 20 10 53 21
75 20 39 20 39 0 72 -22 37 -26 78 -10 88 6 3 10 1 10 -6 0 -7 9 -31 19 -53
11 -23 25 -67 31 -99 6 -31 15 -55 19 -52 5 2 16 -2 27 -9 18 -13 18 -15 -1
-56 l-19 -43 -13 29 c-7 16 -12 22 -13 13 0 -8 7 -24 15 -35 8 -10 15 -15 15
-10 0 5 8 2 18 -5 15 -13 16 -12 4 2 -10 14 -10 23 5 54 l18 37 -33 26 c-34
28 -39 49 -21 85 10 21 10 21 -5 3 -16 -19 -16 -19 -16 5 0 14 -7 34 -15 45
-17 22 -20 48 -4 39 6 -4 5 2 -2 13 -11 18 -10 24 5 41 19 21 19 21 -17 21
-27 0 -41 -7 -61 -31z"/>
<path d="M1389 1873 c-38 -10 -23 -73 17 -73 47 1 71 50 35 70 -20 10 -25 11
-52 3z"/>
<path d="M924 1845 c-10 -25 4 -45 30 -45 29 0 47 37 25 51 -22 14 -49 10 -55
-6z"/>
<path d="M1011 1796 c-29 -34 21 -82 53 -51 14 15 11 55 -4 55 -5 0 -15 2 -23
5 -7 3 -19 -1 -26 -9z"/>
<path d="M1483 1803 c-17 -6 -16 -38 1 -52 10 -9 20 -9 40 0 54 25 14 75 -41
52z"/>
<path d="M1652 1801 c-20 -12 -10 -45 14 -49 25 -4 49 22 40 43 -6 16 -33 20
-54 6z"/>
<path d="M880 1755 c-10 -12 -10 -18 0 -30 17 -21 54 -15 58 9 7 32 -36 48
-58 21z"/>
<path d="M1102 1738 c-22 -22 -13 -46 20 -57 27 -10 35 -9 51 8 19 18 19 19
-2 40 -23 23 -51 27 -69 9z"/>
<path d="M1400 1743 c-15 -6 -30 -23 -30 -33 1 -3 7 -13 15 -23 12 -17 18 -18
49 -7 27 9 35 16 33 32 -5 31 -33 44 -67 31z"/>
<path d="M1591 1712 c-19 -35 19 -54 54 -28 16 12 17 16 6 30 -18 21 -48 20
-60 -2z"/>
<path d="M1504 1686 c-28 -21 -7 -52 32 -48 35 4 46 20 33 44 -12 22 -38 23
-65 4z"/>
<path d="M981 1668 c-7 -18 -4 -26 13 -35 30 -17 44 -16 56 6 7 15 6 23 -6 35
-22 23 -53 20 -63 -6z"/>
<path d="M1286 1661 c-9 -16 -16 -40 -16 -53 1 -22 39 -104 39 -83 0 6 -6 21
-14 35 -19 33 -19 70 1 98 9 13 14 26 11 29 -3 2 -13 -9 -21 -26z"/>
<path d="M880 1650 c-26 -26 -12 -50 30 -50 45 0 51 38 10 60 -15 8 -24 6 -40
-10z"/>
<path d="M1628 1620 c-19 -15 -21 -22 -12 -37 11 -16 29 -19 62 -8 19 7 14 43
-7 55 -15 7 -25 5 -43 -10z"/>
<path d="M1083 1624 c-7 -3 -13 -16 -13 -29 0 -13 6 -27 13 -32 45 -28 95 4
69 44 -9 14 -52 24 -69 17z"/>
<path d="M1415 1617 c-25 -19 -13 -67 16 -67 31 0 59 19 59 40 0 18 -26 40
-47 40 -5 0 -17 -6 -28 -13z"/>
<path d="M1197 1589 c3 -11 -2 -29 -13 -42 l-19 -22 23 19 c12 11 22 26 22 35
0 14 2 14 10 1 5 -8 10 -10 10 -5 0 14 -13 30 -26 32 -7 1 -10 -6 -7 -18z"/>
<path d="M978 1569 c-10 -5 -18 -18 -18 -29 0 -23 52 -44 69 -27 17 17 13 45
-8 57 -23 12 -22 12 -43 -1z"/>
<path d="M1529 1559 c-19 -19 -20 -22 -4 -39 14 -15 22 -17 46 -8 33 11 38 34
12 54 -24 18 -30 17 -54 -7z"/>
<path d="M1250 1550 c0 -8 5 -22 10 -30 9 -13 10 -13 10 0 0 8 -5 22 -10 30
-9 13 -10 13 -10 0z"/>
<path d="M1232 1520 c0 -14 2 -19 5 -12 2 6 2 18 0 25 -3 6 -5 1 -5 -13z"/>
<path d="M1161 1504 c0 -11 3 -14 6 -6 3 7 2 16 -1 19 -3 4 -6 -2 -5 -13z"/>
<path d="M1308 1463 c-2 -36 -7 -49 -20 -51 -15 -3 -17 3 -13 45 4 40 3 42 -3
13 -11 -50 -19 -59 -45 -54 -20 4 -20 4 -2 -4 11 -5 45 -12 75 -15 30 -3 46
-2 35 2 -16 6 -19 16 -16 59 1 29 0 52 -3 52 -3 0 -6 -21 -8 -47z"/>
<path d="M1062 1491 c-22 -14 -10 -43 22 -54 24 -8 32 -6 42 8 27 36 -23 72
-64 46z"/>
<path d="M1429 1479 c-9 -17 -8 -25 4 -37 13 -13 20 -13 46 -2 35 14 35 14 21
41 -14 26 -56 25 -71 -2z"/>
<path d="M1211 1467 c-13 -21 -12 -21 5 -5 10 10 16 20 13 22 -3 3 -11 -5 -18
-17z"/>
<path d="M1365 1434 c-1 -41 1 -44 27 -44 16 0 28 4 28 9 0 4 -10 6 -23 4 -21
-4 -23 -2 -19 30 2 19 0 37 -5 40 -4 3 -8 -15 -8 -39z"/>
<path d="M1160 1436 c0 -9 5 -16 10 -16 6 0 10 4 10 9 0 6 -4 13 -10 16 -5 3
-10 -1 -10 -9z"/>
<path d="M2415 1540 c0 -547 1 -771 2 -497 2 273 2 721 0 995 -1 273 -2 49 -2
-498z"/>
<path d="M3495 2029 c-11 -17 1 -21 15 -4 8 9 8 15 2 15 -6 0 -14 -5 -17 -11z"/>
<path d="M2558 1994 c-5 -4 -8 -45 -8 -92 l0 -85 47 6 c58 6 93 41 93 91 0 48
-26 75 -80 82 -25 3 -48 2 -52 -2z m95 -31 c23 -22 22 -78 -3 -103 -11 -11
-33 -20 -50 -20 l-30 0 0 68 c0 38 3 72 7 76 10 10 55 -3 76 -21z"/>
<path d="M2727 1993 c-13 -28 -2 -177 14 -168 12 8 12 162 0 170 -5 3 -11 2
-14 -2z"/>
<path d="M2797 1993 c-11 -11 -8 -173 3 -173 6 0 10 18 10 40 0 32 4 40 19 40
22 0 36 -16 45 -52 3 -16 10 -28 15 -28 11 0 4 35 -12 69 -9 19 -9 25 1 28 20
7 15 61 -7 73 -22 11 -64 13 -74 3z m67 -19 c9 -8 16 -18 16 -21 0 -14 -35
-43 -52 -43 -14 0 -18 8 -18 33 0 50 23 63 54 31z"/>
<path d="M2930 1910 l0 -90 45 0 c25 0 45 5 45 10 0 6 -16 10 -35 10 -33 0
-35 2 -35 34 0 28 4 35 23 39 l22 4 -22 2 c-19 1 -23 7 -23 31 0 28 3 30 35
30 19 0 35 5 35 10 0 6 -20 10 -45 10 l-45 0 0 -90z"/>
<path d="M3079 1971 c-29 -29 -37 -68 -23 -106 13 -33 103 -60 119 -35 4 6
-10 10 -34 10 -30 0 -44 6 -55 22 -37 53 -5 122 57 122 20 0 33 4 31 8 -12 19
-66 7 -95 -21z"/>
<path d="M3243 1990 c-31 -13 -56 -65 -48 -101 4 -16 18 -38 32 -49 27 -21 78
-27 88 -10 4 6 -7 10 -25 10 -17 0 -39 4 -49 10 -21 11 -33 56 -24 89 7 27 57
54 83 46 12 -4 20 -2 20 4 0 13 -46 13 -77 1z"/>
<path d="M3360 1911 c0 -54 4 -91 10 -91 6 0 10 35 10 84 0 47 -4 88 -10 91
-6 4 -10 -27 -10 -84z"/>
<path d="M3458 1993 c-9 -2 -24 -20 -33 -39 -50 -105 79 -190 133 -87 40 75
-18 148 -100 126z m71 -29 c28 -36 27 -79 -4 -109 -13 -14 -29 -25 -35 -25
-23 0 -60 49 -60 80 0 33 38 80 64 80 8 0 24 -12 35 -26z"/>
<path d="M3600 1911 c0 -54 4 -91 10 -91 6 0 10 32 10 77 l0 77 46 -77 c25
-42 50 -77 55 -77 5 0 9 41 9 91 0 57 -4 88 -10 84 -5 -3 -10 -36 -10 -73 l0
-66 -42 69 c-61 97 -68 95 -68 -14z"/>
<path d="M3424 1720 c-46 -18 -37 -68 16 -90 57 -24 28 -83 -31 -65 -15 5 -19
4 -15 -4 9 -15 69 -14 84 1 25 25 13 57 -29 83 -50 32 -49 58 1 65 27 4 31 7
17 13 -10 4 -19 7 -20 6 -1 0 -11 -4 -23 -9z"/>
<path d="M2571 1648 c-13 -40 -26 -79 -28 -85 -3 -7 -1 -13 4 -13 5 0 14 14
20 30 16 42 57 42 81 0 21 -37 33 -39 22 -2 -27 89 -49 137 -61 140 -10 2 -22
-20 -38 -70z m57 5 c11 -32 10 -33 -20 -33 -23 0 -29 3 -24 16 3 9 9 27 12 41
8 28 17 21 32 -24z"/>
<path d="M2710 1635 l0 -85 45 0 c61 0 95 32 95 88 0 57 -28 82 -90 82 l-50 0
0 -85z m98 59 c16 -11 22 -25 22 -54 0 -47 -30 -80 -72 -80 l-28 0 0 75 0 75
28 0 c15 0 38 -7 50 -16z"/>
<path d="M2888 1636 c-2 -48 0 -86 4 -86 4 0 10 33 14 73 l7 72 24 -72 c14
-40 28 -73 33 -73 5 0 18 30 30 66 26 76 40 71 40 -13 0 -33 4 -53 11 -53 8 0
10 16 5 53 -3 28 -6 67 -6 85 0 54 -26 38 -51 -33 -13 -35 -27 -61 -31 -57 -3
4 -15 32 -25 62 -11 32 -26 56 -35 58 -14 3 -17 -10 -20 -82z"/>
<path d="M3100 1635 c0 -50 4 -85 10 -85 6 0 10 35 10 85 0 50 -4 85 -10 85
-6 0 -10 -35 -10 -85z"/>
<path d="M3160 1635 c0 -50 4 -85 10 -85 6 0 10 31 10 73 l0 72 46 -72 c25
-40 50 -73 55 -73 5 0 9 38 9 85 0 57 -4 85 -11 85 -8 0 -10 -22 -7 -70 3 -38
4 -70 2 -70 -2 0 -22 32 -45 70 -56 95 -69 93 -69 -15z"/>
<path d="M3335 1700 c-8 -26 -2 -150 7 -150 5 0 8 38 8 85 0 86 -4 101 -15 65z"/>
<path d="M3533 1713 c27 -4 27 -5 27 -84 0 -46 4 -79 10 -79 6 0 10 33 10 79
0 79 0 80 28 84 15 2 -2 4 -38 4 -36 0 -53 -2 -37 -4z"/>
<path d="M3660 1635 c0 -50 4 -85 10 -85 6 0 10 18 10 40 0 57 43 53 58 -5 5
-16 13 -30 20 -33 13 -4 -3 52 -21 76 -6 8 -6 12 2 12 17 0 25 48 11 65 -7 9
-29 15 -51 15 l-39 0 0 -85z m79 57 c13 -25 -5 -52 -34 -52 -22 0 -25 5 -25
35 0 31 3 35 25 35 13 0 29 -8 34 -18z"/>
<path d="M3817 1641 c-30 -86 -31 -91 -19 -91 4 0 13 14 19 31 10 25 16 30 40
27 19 -2 32 -12 41 -30 7 -16 17 -28 22 -28 14 0 -46 165 -61 168 -10 2 -23
-23 -42 -77z m63 -8 c0 -7 -12 -13 -26 -13 -20 0 -25 4 -20 16 3 9 9 28 13 42
l6 27 13 -30 c7 -16 13 -36 14 -42z"/>
<path d="M3943 1713 c27 -4 27 -5 27 -84 0 -46 4 -79 10 -79 6 0 10 33 10 79
0 79 0 80 28 84 15 2 -2 4 -38 4 -36 0 -53 -2 -37 -4z"/>
<path d="M4070 1635 c0 -50 4 -85 10 -85 6 0 10 35 10 85 0 50 -4 85 -10 85
-6 0 -10 -35 -10 -85z"/>
<path d="M4120 1713 c0 -26 54 -163 64 -163 7 0 23 33 35 73 13 39 26 78 28
85 3 6 1 12 -4 12 -5 0 -20 -32 -33 -71 -25 -79 -30 -78 -56 14 -9 31 -21 57
-25 57 -5 0 -9 -3 -9 -7z"/>
<path d="M4285 1639 c-27 -80 -29 -116 -3 -62 20 42 62 44 83 3 28 -55 28 -25
0 59 -16 48 -32 81 -40 81 -8 0 -24 -33 -40 -81z m59 9 c6 -25 4 -28 -19 -28
-28 0 -29 4 -14 50 13 35 21 29 33 -22z"/>
<path d="M4480 1635 l0 -85 45 0 c61 0 95 32 95 89 0 56 -28 81 -92 81 l-48 0
0 -85z m100 55 c20 -20 27 -74 12 -96 -11 -16 -48 -34 -71 -34 -19 0 -21 6
-21 75 l0 75 30 0 c17 0 39 -9 50 -20z"/>
<path d="M4660 1635 l0 -85 48 1 47 2 -40 6 c-36 5 -40 9 -43 39 -3 31 -2 32
32 32 45 0 47 18 4 22 -28 2 -33 7 -33 28 0 21 6 26 40 31 l40 6 -47 2 -48 1
0 -85z"/>
<path d="M2592 1395 c-3 -81 -11 -105 -33 -105 -11 0 -19 -4 -19 -10 0 -14 23
-12 44 3 14 10 16 25 13 92 -3 71 -3 73 -5 20z"/>
<path d="M2650 1380 c0 -57 4 -74 20 -90 24 -24 48 -25 78 -4 20 14 22 23 20
92 l-1 77 -6 -70 c-7 -81 -14 -95 -45 -95 -36 0 -46 19 -46 92 0 39 -4 68 -10
68 -6 0 -10 -30 -10 -70z"/>
<path d="M2800 1447 c0 -3 45 -138 55 -166 9 -24 26 2 56 89 16 46 23 80 17
78 -6 -2 -21 -34 -32 -70 -12 -37 -24 -69 -27 -72 -3 -3 -15 28 -27 69 -12 41
-27 75 -32 75 -6 0 -10 -1 -10 -3z"/>
<path d="M2970 1362 l0 -87 45 0 c25 0 45 3 45 8 0 4 -18 7 -41 7 -39 0 -40 1
-37 33 3 28 7 32 38 36 l35 4 -35 6 c-29 5 -36 11 -38 34 -3 26 -1 27 37 27
23 0 41 5 41 10 0 6 -20 10 -45 10 l-45 0 0 -88z"/>
<path d="M3097 1443 c-11 -10 -8 -163 3 -163 5 0 10 32 12 72 l3 71 41 -68
c22 -38 46 -71 52 -73 9 -3 11 21 10 85 l-2 88 -5 -74 -6 -74 -45 71 c-44 72
-51 78 -63 65z"/>
<path d="M3250 1440 c0 -5 11 -10 25 -10 24 0 25 -2 25 -74 0 -41 5 -78 10
-81 6 -4 10 23 10 74 0 80 0 81 25 81 14 0 25 5 25 10 0 6 -27 10 -60 10 -33
0 -60 -4 -60 -10z"/>
<path d="M3400 1376 c0 -66 3 -77 22 -90 30 -21 54 -20 78 4 16 16 20 33 20
92 0 93 -18 79 -22 -17 -3 -64 -5 -70 -26 -73 -40 -6 -52 14 -52 89 0 39 -4
69 -10 69 -6 0 -10 -31 -10 -74z"/>
<path d="M3570 1360 c0 -88 1 -90 24 -90 43 0 86 22 101 51 36 70 -5 129 -90
129 l-35 0 0 -90z m103 48 c20 -24 22 -50 6 -81 -16 -29 -28 -37 -61 -37 -28
0 -28 0 -28 68 0 38 3 72 7 76 12 12 57 -3 76 -26z"/>
<path d="M1716 764 c-5 -14 -4 -15 9 -4 17 14 19 20 6 20 -5 0 -12 -7 -15 -16z"/>
<path d="M663 647 c-36 -89 -38 -97 -24 -97 5 0 12 11 15 25 5 21 12 25 46 25
33 0 42 -4 52 -25 24 -52 27 -22 4 38 -42 110 -45 117 -53 117 -5 0 -23 -37
-40 -83z m67 -17 c0 -12 -28 -20 -44 -14 -8 3 -13 11 -11 17 3 7 9 26 15 42
l12 30 14 -34 c8 -18 14 -37 14 -41z"/>
<path d="M840 641 l0 -91 48 2 c43 1 44 2 10 5 l-38 4 0 79 c0 43 -4 82 -10
85 -6 4 -10 -27 -10 -84z"/>
<path d="M1010 717 c-48 -24 -57 -122 -13 -154 18 -14 89 -18 97 -5 2 4 -12 6
-33 4 -46 -5 -75 24 -75 74 0 47 32 78 79 77 19 -1 32 3 29 8 -8 13 -55 11
-84 -4z"/>
<path d="M1214 718 c-11 -16 -64 -150 -64 -160 0 -19 18 -6 24 17 5 21 12 25
46 25 34 0 42 -4 50 -25 5 -14 14 -25 20 -25 5 0 0 24 -11 53 -12 28 -26 66
-31 82 -14 40 -24 50 -34 33z m26 -98 c-10 -6 -50 -3 -50 5 0 1 7 20 16 41
l16 39 16 -39 c12 -30 12 -40 2 -46z"/>
<path d="M1362 643 l-2 -93 48 1 47 2 -40 6 -40 6 -6 85 -5 85 -2 -92z"/>
<path d="M1510 641 l0 -91 39 0 c58 0 96 35 96 89 0 53 -25 77 -87 86 l-48 7
0 -91z m100 49 c45 -45 4 -135 -58 -128 -26 3 -27 5 -30 76 l-3 72 36 0 c22 0
43 -8 55 -20z"/>
<path d="M1717 723 c-11 -11 -8 -173 3 -173 6 0 10 37 10 90 0 90 -1 96 -13
83z"/>
<path d="M1856 722 c-5 -9 -66 -164 -66 -169 0 -2 4 -3 10 -3 5 0 12 11 16 25
5 22 12 25 50 25 38 0 44 -3 50 -25 3 -14 10 -25 15 -25 13 0 12 1 -22 87 -32
83 -43 100 -53 85z m27 -64 l16 -38 -34 0 -33 0 15 40 c9 22 17 39 19 38 1 -2
9 -20 17 -40z"/>
<path d="M1560 457 c-79 -27 -72 -103 13 -147 35 -19 47 -30 45 -45 -3 -17
-10 -20 -55 -20 -48 1 -53 -1 -53 -21 0 -17 8 -23 38 -28 48 -7 109 9 122 34
5 10 10 32 10 49 0 30 -18 48 -84 81 -59 30 -41 64 32 57 38 -4 42 -3 42 18 0
17 -7 24 -31 29 -38 7 -36 8 -79 -7z"/>
<path d="M2061 463 c-108 -21 -138 -187 -45 -248 33 -22 103 -24 139 -5 29 16
65 84 65 124 0 37 -27 91 -54 109 -26 17 -72 26 -105 20z m70 -62 c20 -16 24
-29 24 -71 0 -42 -4 -55 -24 -71 -31 -26 -57 -24 -86 6 -19 18 -25 35 -25 65
0 30 6 47 25 65 29 30 55 32 86 6z"/>
<path d="M352 330 l-1 -130 73 0 c59 0 79 4 107 23 41 27 61 77 52 132 -12 81
-49 105 -163 105 l-67 0 -1 -130z m156 55 c12 -15 22 -39 22 -56 0 -42 -48
-89 -89 -89 l-31 0 0 91 0 92 38 -6 c22 -4 46 -17 60 -32z"/>
<path d="M650 330 l0 -130 80 0 c73 0 80 2 80 20 0 17 -7 20 -50 20 l-50 0 0
35 c0 35 0 35 45 35 38 0 45 3 45 20 0 17 -7 20 -45 20 -45 0 -45 0 -45 35 0
35 0 35 45 35 38 0 45 3 45 20 0 18 -7 20 -75 20 l-75 0 0 -130z"/>
<path d="M1000 330 l0 -130 24 0 c22 0 25 5 28 42 3 42 4 43 48 50 82 14 118
91 65 143 -21 22 -33 25 -95 25 l-70 0 0 -130z m118 78 c7 -7 12 -22 12 -34 0
-51 -72 -61 -78 -11 -2 16 -1 35 2 43 7 17 48 18 64 2z"/>
<path d="M1287 438 c-3 -13 -21 -67 -41 -122 -20 -54 -36 -102 -36 -107 0 -5
13 -9 29 -9 24 0 30 5 35 30 5 28 8 30 55 30 46 0 50 -2 60 -30 8 -24 16 -30
40 -30 l30 0 -45 126 c-24 69 -44 128 -44 130 0 2 -17 4 -39 4 -32 0 -40 -4
-44 -22z m61 -77 c17 -55 15 -61 -18 -61 -16 0 -30 5 -30 11 0 21 23 89 30 89
4 0 12 -17 18 -39z"/>
<path d="M1720 440 c0 -17 7 -20 40 -20 l40 0 0 -110 0 -110 30 0 c16 0 29 3
29 8 -1 4 -1 53 0 110 l1 102 35 0 c28 0 35 4 35 20 0 19 -7 20 -105 20 -98 0
-105 -1 -105 -20z"/>
</g>
</svg>
